<svg version="1.2" baseProfile="tiny-ps" xmlns="http://www.w3.org/2000/svg" viewBox="0 0 12 26" width="12" height="26">
	<title>our team</title>
	<style>
		tspan { white-space:pre }
		.shp0 { fill: #ffffff } 
	</style>
	<g id="our team">
		<g id="1">
			<g id="share">
				<path id="facebook" class="shp0" d="M12.09 0.2C12.09 1.68 12.09 4.32 12.09 4.32C12.09 4.32 9.05 4.02 8.29 5.18C7.88 5.82 8.12 7.68 8.09 9.02C9.41 9.02 10.79 9.02 12.11 9.02C11.77 10.58 11.53 11.64 11.28 13C10.13 13 8.06 13 8.06 13L8.06 25.8C8.06 25.8 4.27 25.8 2.48 25.8C2.48 21.85 2.48 17.25 2.48 13.05C1.61 13.05 0.97 13.05 0.11 13.05C0.11 11.57 0.11 10.5 0.11 9.02C0.95 9.02 1.61 9.02 2.45 9.02C2.58 6.07 2.62 3.15 4.08 1.67C5.73 0 7.3 0.2 12.09 0.2Z" />
			</g>
		</g>
	</g>
</svg>