<svg version="1.2" baseProfile="tiny-ps" xmlns="http://www.w3.org/2000/svg" viewBox="0 0 20 26" width="20" height="26">
	<title>our team</title>
	<style>
		tspan { white-space:pre }
		.shp0 { fill: #f38181 } 
	</style>
	<g id="our team">
		<g id="1">
			<g id="share">
				<path id="pinterest" class="shp0" d="M8.05 16.85C7.84 17.69 7.63 18.56 7.41 19.41C7.2 20.26 7.01 21.11 6.7 21.88C6.18 23.17 5.52 24.4 4.65 25.41C4.08 26.07 4.2 25.81 4.03 25.77C3.89 25.74 3.88 25.61 3.86 25.43C3.72 24.41 3.81 23.23 3.86 22.09C3.92 20.78 4.2 19.7 4.45 18.62C4.94 16.55 5.4 14.53 5.89 12.45C5.92 12.31 6.01 12.08 5.98 12.01C5.76 11.43 5.61 10.91 5.55 10.31C5.48 9.61 5.53 8.96 5.69 8.36C5.96 7.3 6.6 6.37 7.58 6.02C8.21 5.81 8.9 5.91 9.32 6.16C9.75 6.41 10.05 6.82 10.18 7.4C10.33 8.02 10.22 8.75 10.1 9.29C9.84 10.51 9.49 11.43 9.17 12.6C9.01 13.19 8.83 13.79 8.98 14.41C9.11 14.99 9.41 15.39 9.83 15.69C10.25 16 10.75 16.17 11.45 16.15C12.68 16.1 13.53 15.32 14.1 14.58C15.01 13.39 15.57 11.79 15.78 9.89C15.84 9.28 15.89 8.57 15.85 7.88C15.76 6.59 15.36 5.56 14.72 4.76C14.11 4 13.25 3.39 12.21 3.05C11.17 2.71 9.73 2.6 8.46 2.82C6.14 3.21 4.51 4.53 3.55 6.35C3.04 7.3 2.71 8.4 2.71 9.76C2.71 10.81 2.97 11.62 3.39 12.26C3.52 12.46 3.71 12.63 3.84 12.86C4.03 13.18 3.82 13.67 3.72 14.02C3.61 14.45 3.6 15.03 3.11 15.04C2.9 15.05 2.64 14.9 2.47 14.8C1.16 14.08 0.37 12.77 0.05 11.06C-0.15 10.03 -0.15 8.83 0.05 7.83C0.24 6.86 0.59 5.97 0.98 5.25C1.8 3.74 2.99 2.54 4.44 1.68C5.56 1.02 6.82 0.56 8.35 0.34C8.86 0.26 9.38 0.23 9.95 0.21C11.62 0.13 13.14 0.5 14.28 1.01C15.49 1.55 16.45 2.27 17.26 3.16C18.1 4.08 18.71 5.14 19.1 6.47C19.3 7.16 19.49 7.9 19.49 8.76C19.49 9.61 19.31 10.37 19.19 11.13C18.71 13.95 17.37 16.27 15.35 17.58C14.86 17.9 14.27 18.2 13.59 18.39C12.93 18.59 12.17 18.73 11.35 18.68C10.56 18.62 9.91 18.41 9.37 18.1C8.83 17.79 8.37 17.42 8.05 16.85Z" />
			</g>
		</g>
	</g>
</svg>